<svg width="278" height="96" viewBox="0 0 278 96" fill="none" xmlns="http://www.w3.org/2000/svg">
<g clip-path="url(#clip0_2593_1798)">
<g filter="url(#filter0_d_2593_1798)">
<path fill-rule="evenodd" clip-rule="evenodd" d="M103.933 67.8391C103.371 68.149 102.74 68.3116 102.098 68.3116H94.1844C92.7737 68.3116 91.5752 67.2795 91.366 65.8844L86.6001 34.1151L72.725 57.0001C72.2711 57.8276 69.4 66.9751 69.4 66.9751C69.4 66.9751 62.8399 69.1124 61.9055 69.1124C60.9979 69.1124 60.1437 68.8988 59.3428 68.4717C58.5686 68.0446 57.9547 67.4173 57.5008 66.5897L36.396 34.1151L34.725 66.5001L31.1168 68.0152C30.651 68.2108 30.1508 68.3116 29.6456 68.3116H23.3592C21.5998 68.3116 20.2592 66.7405 20.5453 65.0045C22.4295 53.5704 28.5499 16.3514 28.5499 15.335C28.5499 14.1338 29.2809 12.8094 29.975 11.8751C30.6957 10.9407 35.4771 7.4454 36.625 7.12506C36.8792 7.06452 36.2631 7.66595 35.5662 8.34631C34.7265 9.16602 33.7695 10.1003 34.0758 10.1295C34.6364 10.1562 35.1703 10.2763 35.6775 10.4899C36.2114 10.6767 36.6919 10.957 37.1191 11.3308C37.5462 11.6778 37.9066 12.1049 38.2002 12.6121L61.9055 53.8161L85.6108 12.6121C87.1231 10.5211 88.2316 9.8637 89.5067 9.10748C89.8245 8.91903 90.1526 8.72444 90.4999 8.5C91.6 7.78904 92.4999 7.5 92.4999 7.5C92.4999 7.5 93.5793 11.1973 94.3001 12.1316C95.0209 13.0659 95.3813 14.1338 95.3813 15.335L105.5 66.975L103.933 67.8391ZM124.774 68.3115C125.224 68.3115 125.67 68.2316 126.092 68.0755L129 67L125.509 11.7487C125.474 11.2086 125.187 10.7166 124.733 10.422L121 7.99998L116.734 10.07C115.7 10.5717 115.043 11.6199 115.043 12.7691V65.4615C115.043 67.0355 116.319 68.3115 117.893 68.3115H124.774ZM195.898 64.2745C195.362 64.2649 194.763 64.2541 194.763 63.8668V12.1846C194.763 11.419 194.254 10.7467 193.517 10.5388L188.15 9.02502L186.029 10.0664C185.002 10.5707 184.352 11.6152 184.352 12.7593V51.3334L146.311 11.651C145.563 10.8769 144.669 10.3963 143.628 10.2095C143.026 10.086 143.725 9.25765 144.231 8.65839C144.6 8.22135 144.867 7.90615 144.45 8.07502C143.516 8.50214 138.876 11.5709 138.262 12.4519C137.675 13.3061 137.381 14.2671 137.381 15.335V65.4615C137.381 67.0355 138.657 68.3115 140.231 68.3115H146.941C147.502 68.3115 148.055 68.1874 148.563 67.9482L150.625 66.975L147.792 27.8683L185.775 67.45C186.282 67.9839 186.856 68.371 187.497 68.6113C188.164 68.8515 188.818 68.9716 189.459 68.9716L189.515 68.9717C190.218 68.9718 190.935 68.972 191.559 68.7119C192.2 68.445 197.65 66.975 197.65 66.975C197.65 66.975 196.433 65.2407 196.7 64.6C196.841 64.2914 196.397 64.2834 195.898 64.2745ZM261.948 21.3013C262.209 21.3013 262.467 21.2416 262.701 21.1266L265.1 19.95L262.692 12.0309C262.483 11.3455 261.87 10.8627 261.155 10.8212L212.5 8L207.696 10.1376C206.668 10.5953 206.005 11.6156 206.005 12.7415V18.3013C206.005 19.9582 207.348 21.3013 209.005 21.3013H228.989V65.4615C228.989 67.0355 230.265 68.3115 231.839 68.3115H238.675C239.154 68.3115 239.629 68.2209 240.075 68.0445L242.775 66.975L239.4 21.3013H261.948Z" fill="url(#paint0_linear_2593_1798)"/>
</g>
<g filter="url(#filter1_d_2593_1798)">
<path fill-rule="evenodd" clip-rule="evenodd" d="M104.92 67.2649C104.677 67.3907 104.407 67.4564 104.134 67.4564H95.8945C94.4838 67.4564 93.2853 66.4243 93.076 65.0292L88.3101 33.2599L68.925 65.55L68.45 66.975C68.45 66.975 64.5499 68.2573 63.6156 68.2573C62.708 68.2573 61.8537 68.0437 61.0529 67.6166C60.2787 67.1895 59.6647 66.5621 59.2109 65.7346L38.1061 33.2599L35.7859 65.7346L32.4666 67.2941C32.2391 67.401 31.9908 67.4564 31.7394 67.4564H25.0568C23.3016 67.4564 21.9636 65.8851 22.2433 64.1523L30.26 14.4799C30.26 13.2786 31.181 11.4099 31.875 10.4756C32.5958 9.54127 36.625 7.125 36.625 7.125C36.625 7.125 35.2253 9.22092 35.7859 9.27431C36.3465 9.30101 36.8804 9.42114 37.3876 9.6347C37.9215 9.82156 38.402 10.1019 38.8291 10.4756C39.2563 10.8226 39.6167 11.2498 39.9103 11.757L63.6156 52.9609L87.3209 11.757C89 9.5 91.1322 8.02714 92.2 7.60002C92.7334 7.39186 92.7167 7.74304 92.6953 8.19179C92.6727 8.66385 92.6451 9.2439 93.2472 9.39444C94.3684 9.71478 95.2894 10.3421 96.0102 11.2765C96.731 12.2108 97.0913 13.2786 97.0913 14.4799L107.875 65.7346L104.92 67.2649ZM197.215 63.369C196.873 63.384 196.473 63.4016 196.473 63.0116V11.1265C196.473 10.4609 196.086 9.85573 195.483 9.57547L191.227 7.59996L187.042 9.57265C186.444 9.85492 186.062 10.4574 186.062 11.1194V50.4782L148.021 10.7958C147.274 10.0217 146.379 9.54117 145.338 9.35431C144.763 9.23638 145.124 8.59167 145.397 8.10532C145.618 7.71091 145.78 7.42065 145.338 7.59996C144.404 8.02708 140.586 10.7158 139.972 11.5967C139.385 12.4509 139.091 13.412 139.091 14.4798V64.6063C139.091 66.1803 140.367 67.4563 141.941 67.4563H149.236C149.413 67.4563 149.588 67.429 149.756 67.3754L152.5 66.5L149.503 27.0132L187.543 66.7356C188.05 67.2695 188.624 67.6565 189.265 67.8968C189.932 68.1371 190.586 68.2572 191.227 68.2572C191.948 68.2572 197.65 66.975 197.65 66.975C197.65 66.975 197.671 65.5476 198.125 65.0938C198.369 64.8496 198.174 64.6462 197.957 64.4212C197.748 64.2033 197.519 63.9651 197.65 63.65C197.79 63.3436 197.527 63.3552 197.215 63.369ZM127.112 67.4503C127.27 67.4501 127.427 67.428 127.579 67.3845L129.94 66.7099C130.369 66.5873 130.655 66.1828 130.628 65.7375L127.227 11.0335C127.188 10.4168 126.82 9.86875 126.264 9.59992L122.125 7.6L118.427 9.27659C117.408 9.73846 116.753 10.7537 116.753 11.8723V64.6064C116.753 66.1804 118.029 67.4564 119.603 67.4564H121.959L127.112 67.4503ZM263.748 20.4462C263.951 20.4462 264.153 20.41 264.343 20.3393L267.95 19L264.478 11.0084C264.219 10.4123 263.644 10.0145 262.995 9.98198L213.5 7.49999L209.421 9.28748C208.385 9.74171 207.715 10.7662 207.715 11.8978V17.4462C207.715 19.1031 209.058 20.4462 210.715 20.4462H230.699V64.6064C230.699 66.1804 231.975 67.4564 233.549 67.4564H240.885C241.035 67.4564 241.184 67.4368 241.328 67.398L243.913 66.7044C244.355 66.5859 244.649 66.1695 244.614 65.7136L241.111 20.4462H263.748Z" fill="url(#paint1_linear_2593_1798)"/>
</g>
<path fill-rule="evenodd" clip-rule="evenodd" d="M198.597 64.2389C198.891 63.5982 199.038 62.9042 199.038 62.1567V10.551C199.038 9.74989 198.482 9.0562 197.7 8.88191L191.5 7.5L189.617 8.601C189.004 8.95969 188.626 9.61693 188.626 10.3275V49.6233L150.586 9.94096C149.838 9.1668 148.944 8.68629 147.903 8.49942C146.862 8.28586 145.488 8.099 144.5 8.49942C143.768 8.83393 143.355 9.47954 142.916 10.167C142.794 10.3573 142.67 10.5508 142.537 10.7418C141.95 11.5961 141.656 12.5571 141.656 13.6249V64.8915C141.656 65.8359 142.422 66.6015 143.366 66.6015H150.357C151.302 66.6015 152.067 65.8359 152.067 64.8915V26.1583L190.108 65.8807C190.615 66.4146 191.189 66.8017 191.83 67.0419C192.497 67.2822 193.151 67.4023 193.792 67.4023C194.513 67.4023 195.193 67.2688 195.834 67.0019C196.475 66.7349 197.022 66.3745 197.476 65.9207C197.956 65.4402 198.33 64.8796 198.597 64.2389ZM128.019 66.6015C128.964 66.6015 129.729 65.8359 129.729 64.8915V10.5764C129.729 9.76382 129.158 9.06348 128.361 8.90094L122.844 7.77441C121.99 7.60016 121.103 7.80547 120.413 8.33697L119.985 8.66683C119.565 8.99056 119.318 9.49106 119.318 10.0216V64.8915C119.318 65.8359 120.084 66.6015 121.028 66.6015H128.019ZM107.067 64.6456C107.217 65.677 106.417 66.6014 105.375 66.6014H97.4777C96.6312 66.6014 95.9122 65.9822 95.7866 65.1451L90.8751 32.4049L70.7054 64.8796C70.2515 65.7071 69.6109 66.3345 68.7833 66.7616C67.9825 67.1887 67.1149 67.4023 66.1805 67.4023C65.2729 67.4023 64.4187 67.1887 63.6178 66.7616C62.8436 66.3345 62.2296 65.7071 61.7758 64.8796L40.671 32.4049L34.9337 65.1862C34.7905 66.0045 34.08 66.6014 33.2493 66.6014H26.283C25.2299 66.6014 24.4271 65.6586 24.5949 64.619L32.8249 13.6249C32.8249 12.4236 33.172 11.3558 33.866 10.4215C34.5868 9.48712 35.5211 8.85979 36.669 8.53945C37.2296 8.40597 37.7902 8.36593 38.3508 8.41932C38.9114 8.44601 39.4453 8.56614 39.9525 8.7797C40.4864 8.96657 40.9669 9.24687 41.3941 9.6206C41.8212 9.96764 42.1816 10.3948 42.4752 10.902L66.1805 52.1059L89.8858 10.902C90.4998 9.88755 91.3407 9.16678 92.4085 8.73966C93.503 8.31254 94.6376 8.2458 95.8122 8.53945C96.9334 8.85979 97.8543 9.48712 98.5751 10.4215C99.2959 11.3558 99.6563 12.4236 99.6563 13.6249L107.067 64.6456ZM264.91 19.5913C265.854 19.5913 266.62 18.8257 266.62 17.8813V10.8533C266.62 9.92341 265.877 9.16397 264.947 9.1437L212.5 8.00005L211.187 8.69784C210.629 8.99466 210.28 9.57541 210.28 10.2078V17.5913C210.28 18.6959 211.175 19.5913 212.28 19.5913H233.264V64.6015C233.264 65.706 234.16 66.6015 235.264 66.6015H241.965C242.91 66.6015 243.675 65.8359 243.675 64.8915V19.5913H264.91Z" fill="url(#paint2_linear_2593_1798)"/>
<path fill-rule="evenodd" clip-rule="evenodd" d="M67.0356 48.7081L90.0094 9.60423C90.7164 8.43622 91.7002 7.5892 92.9461 7.09083L92.9528 7.08815C94.2177 6.59455 95.5337 6.51976 96.8746 6.855L96.8884 6.85845L96.9021 6.86236C98.2012 7.23352 99.2763 7.96717 100.107 9.04424C100.933 10.1144 101.353 11.3449 101.366 12.7061L108.768 63.6677C108.993 65.2149 107.793 66.6014 106.23 66.6014H98.3328C97.0631 66.6014 95.9845 65.6726 95.7961 64.417L91.2296 33.9764L72.2985 64.4568C71.7655 65.4194 71.0071 66.1611 70.0357 66.6637C69.1087 67.1571 68.1041 67.4023 67.0356 67.4023C65.9876 67.4023 64.9952 67.1542 64.0705 66.661L64.0598 66.6553C63.1434 66.1497 62.4222 65.4105 61.8972 64.4647L41.9936 33.8383L36.631 64.4786C36.4162 65.706 35.3504 66.6014 34.1044 66.6014H27.1381C25.5584 66.6014 24.3542 65.1873 24.6059 63.6278L32.8254 12.6991C32.8389 11.3486 33.2413 10.1248 34.0348 9.05662L34.0394 9.05039L34.0441 9.04424C34.8788 7.96232 35.9706 7.23032 37.2943 6.86093L37.3101 6.85652L37.3261 6.85272C37.9692 6.69959 38.6173 6.65167 39.2668 6.71131C39.9094 6.74414 40.527 6.88223 41.115 7.12654C41.7376 7.34788 42.3009 7.6774 42.8004 8.11193C43.3072 8.52624 43.7294 9.03058 44.0688 9.61613L44.0702 9.6186L67.0356 48.7081ZM149.775 6.80472C148.571 6.5599 147.389 6.67005 146.249 7.13233L146.231 7.13933L146.214 7.14709C145.135 7.64072 144.243 8.39744 143.546 9.39789L143.543 9.4024C142.854 10.4037 142.511 11.5346 142.511 12.7699V64.0364C142.511 65.453 143.66 66.6014 145.076 66.6014H152.068C153.484 66.6014 154.633 65.453 154.633 64.0364V27.4322L191.198 65.6145C191.788 66.235 192.469 66.6983 193.24 66.9875L193.25 66.9913C194.001 67.2615 194.753 67.4023 195.502 67.4023C196.331 67.4023 197.124 67.2481 197.873 66.9361C198.608 66.6297 199.252 66.2093 199.791 65.6703C200.348 65.1125 200.782 64.4623 201.091 63.7265C201.434 62.9712 201.603 62.1593 201.603 61.3017V10.0351C201.603 8.6185 200.454 7.47012 199.038 7.47012H192.047C190.63 7.47012 189.482 8.61851 189.482 10.0351V46.6409L152.913 8.49425L152.911 8.49205C152.044 7.59359 150.991 7.02527 149.775 6.80472ZM132.294 64.0364C132.294 65.453 131.146 66.6014 129.729 66.6014H122.738C121.322 66.6014 120.173 65.453 120.173 64.0364V10.0351C120.173 8.61853 121.322 7.47013 122.738 7.47013H129.729C131.146 7.47013 132.294 8.61852 132.294 10.0351V64.0364ZM269.185 17.0262C269.185 18.4429 268.037 19.5912 266.62 19.5912H246.24V64.0364C246.24 65.453 245.092 66.6014 243.675 66.6014H236.684C235.268 66.6014 234.119 65.453 234.119 64.0364V19.5912H213.7C212.283 19.5912 211.135 18.4429 211.135 17.0262V10.0351C211.135 8.61852 212.283 7.47013 213.7 7.47013H266.62C268.037 7.47013 269.185 8.61852 269.185 10.0351V17.0262Z" fill="#282A30"/>
</g>
<defs>
<filter id="filter0_d_2593_1798" x="0.506714" y="2.12085" width="276.593" height="93.9915" filterUnits="userSpaceOnUse" color-interpolation-filters="sRGB">
<feFlood flood-opacity="0" result="BackgroundImageFix"/>
<feColorMatrix in="SourceAlpha" type="matrix" values="0 0 0 0 0 0 0 0 0 0 0 0 0 0 0 0 0 0 127 0" result="hardAlpha"/>
<feOffset dx="-4" dy="11"/>
<feGaussianBlur stdDeviation="8"/>
<feComposite in2="hardAlpha" operator="out"/>
<feColorMatrix type="matrix" values="0 0 0 0 0 0 0 0 0 0.42696 0 0 0 0 0.883366 0 0 0 1 0"/>
<feBlend mode="normal" in2="BackgroundImageFix" result="effect1_dropShadow_2593_1798"/>
<feBlend mode="normal" in="SourceGraphic" in2="effect1_dropShadow_2593_1798" result="shape"/>
</filter>
<filter id="filter1_d_2593_1798" x="9.20624" y="-0.875" width="265.744" height="81.1323" filterUnits="userSpaceOnUse" color-interpolation-filters="sRGB">
<feFlood flood-opacity="0" result="BackgroundImageFix"/>
<feColorMatrix in="SourceAlpha" type="matrix" values="0 0 0 0 0 0 0 0 0 0 0 0 0 0 0 0 0 0 127 0" result="hardAlpha"/>
<feOffset dx="-3" dy="2"/>
<feGaussianBlur stdDeviation="5"/>
<feComposite in2="hardAlpha" operator="out"/>
<feColorMatrix type="matrix" values="0 0 0 0 0.486275 0 0 0 0 1 0 0 0 0 0.996078 0 0 0 1 0"/>
<feBlend mode="normal" in2="BackgroundImageFix" result="effect1_dropShadow_2593_1798"/>
<feBlend mode="normal" in="SourceGraphic" in2="effect1_dropShadow_2593_1798" result="shape"/>
</filter>
<linearGradient id="paint0_linear_2593_1798" x1="80.5058" y1="87.4658" x2="151.522" y2="26.0666" gradientUnits="userSpaceOnUse">
<stop stop-color="#48D4FB"/>
<stop offset="1" stop-color="#70F1F7"/>
</linearGradient>
<linearGradient id="paint1_linear_2593_1798" x1="84.419" y1="60.2409" x2="220.805" y2="21.984" gradientUnits="userSpaceOnUse">
<stop stop-color="#7FDFFF"/>
<stop offset="1" stop-color="#7CFFFE"/>
</linearGradient>
<linearGradient id="paint2_linear_2593_1798" x1="48.9293" y1="44.8005" x2="151.951" y2="23.7618" gradientUnits="userSpaceOnUse">
<stop stop-color="#45E9FD"/>
<stop offset="1" stop-color="#59E6FF"/>
</linearGradient>
<clipPath id="clip0_2593_1798">
<rect width="278" height="96" fill="white"/>
</clipPath>
</defs>
</svg>
